<svg width="168" height="54" viewBox="0 0 168 54" fill="none" xmlns="http://www.w3.org/2000/svg">
<rect width="168" height="54" rx="16" fill="#FBF8FC"/>
<path d="M64.9 23V16.44H66.54C67.5533 16.44 68.3233 16.72 68.85 17.28C69.3767 17.84 69.64 18.6433 69.64 19.69C69.64 20.21 69.5733 20.6767 69.44 21.09C69.3067 21.4967 69.11 21.8433 68.85 22.13C68.59 22.41 68.27 22.6267 67.89 22.78C67.51 22.9267 67.0733 23 66.58 23H64.9ZM65.73 22.32H66.48C67.2467 22.32 67.82 22.09 68.2 21.63C68.5867 21.17 68.78 20.5233 68.78 19.69C68.78 18.8567 68.5867 18.22 68.2 17.78C67.82 17.34 67.2467 17.12 66.48 17.12H65.73V22.32ZM72.8623 23.12C72.5623 23.12 72.2757 23.0633 72.0023 22.95C71.7357 22.8367 71.499 22.6733 71.2923 22.46C71.0857 22.24 70.919 21.9733 70.7923 21.66C70.6723 21.34 70.6123 20.98 70.6123 20.58C70.6123 20.1733 70.6723 19.8133 70.7923 19.5C70.919 19.18 71.0857 18.91 71.2923 18.69C71.499 18.47 71.7357 18.3033 72.0023 18.19C72.2757 18.0767 72.5623 18.02 72.8623 18.02C73.1623 18.02 73.4457 18.0767 73.7123 18.19C73.9857 18.3033 74.2257 18.47 74.4323 18.69C74.639 18.91 74.8023 19.18 74.9223 19.5C75.049 19.8133 75.1123 20.1733 75.1123 20.58C75.1123 20.98 75.049 21.34 74.9223 21.66C74.8023 21.9733 74.639 22.24 74.4323 22.46C74.2257 22.6733 73.9857 22.8367 73.7123 22.95C73.4457 23.0633 73.1623 23.12 72.8623 23.12ZM72.8623 22.44C73.069 22.44 73.259 22.3967 73.4323 22.31C73.6057 22.2167 73.7523 22.09 73.8723 21.93C73.999 21.7633 74.0957 21.5667 74.1623 21.34C74.229 21.1133 74.2623 20.86 74.2623 20.58C74.2623 20.3 74.229 20.0467 74.1623 19.82C74.0957 19.5867 73.999 19.3867 73.8723 19.22C73.7523 19.0533 73.6057 18.9267 73.4323 18.84C73.259 18.7467 73.069 18.7 72.8623 18.7C72.6557 18.7 72.4657 18.7467 72.2923 18.84C72.119 18.9267 71.969 19.0533 71.8423 19.22C71.7223 19.3867 71.629 19.5867 71.5623 19.82C71.4957 20.0467 71.4623 20.3 71.4623 20.58C71.4623 20.86 71.4957 21.1133 71.5623 21.34C71.629 21.5667 71.7223 21.7633 71.8423 21.93C71.969 22.09 72.119 22.2167 72.2923 22.31C72.4657 22.3967 72.6557 22.44 72.8623 22.44ZM77.1232 23L75.7732 18.14H76.6132L77.3332 20.95C77.3865 21.1833 77.4365 21.41 77.4832 21.63C77.5299 21.85 77.5765 22.0733 77.6232 22.3H77.6632C77.7165 22.0733 77.7699 21.85 77.8232 21.63C77.8765 21.4033 77.9332 21.1767 77.9932 20.95L78.7432 18.14H79.5432L80.3032 20.95C80.3632 21.1833 80.4199 21.41 80.4732 21.63C80.5332 21.85 80.5899 22.0733 80.6432 22.3H80.6832C80.7365 22.0733 80.7865 21.85 80.8332 21.63C80.8799 21.41 80.9299 21.1833 80.9832 20.95L81.6932 18.14H82.4732L81.1732 23H80.1732L79.4732 20.39C79.4132 20.1567 79.3565 19.9267 79.3032 19.7C79.2565 19.4733 79.2032 19.2367 79.1432 18.99H79.1032C79.0499 19.2367 78.9965 19.4767 78.9432 19.71C78.8899 19.9367 78.8299 20.1667 78.7632 20.4L78.0832 23H77.1232ZM83.5309 23V18.14H84.2109L84.2809 18.84H84.3109C84.5443 18.6067 84.7876 18.4133 85.0409 18.26C85.3009 18.1 85.6009 18.02 85.9409 18.02C86.4543 18.02 86.8276 18.18 87.0609 18.5C87.3009 18.82 87.4209 19.2933 87.4209 19.92V23H86.6009V20.03C86.6009 19.57 86.5276 19.24 86.3809 19.04C86.2343 18.8333 86.0009 18.73 85.6809 18.73C85.4276 18.73 85.2043 18.7933 85.0109 18.92C84.8176 19.0467 84.5976 19.2333 84.3509 19.48V23H83.5309ZM89.8697 23.12C89.5564 23.12 89.333 23.0267 89.1997 22.84C89.0664 22.6533 88.9997 22.38 88.9997 22.02V15.88H89.8197V22.08C89.8197 22.2133 89.843 22.3067 89.8897 22.36C89.9364 22.4133 89.9897 22.44 90.0497 22.44C90.0764 22.44 90.0997 22.44 90.1197 22.44C90.1464 22.44 90.183 22.4333 90.2297 22.42L90.3397 23.04C90.2864 23.0667 90.223 23.0867 90.1497 23.1C90.0764 23.1133 89.983 23.12 89.8697 23.12ZM93.4385 23.12C93.1385 23.12 92.8518 23.0633 92.5785 22.95C92.3118 22.8367 92.0752 22.6733 91.8685 22.46C91.6618 22.24 91.4952 21.9733 91.3685 21.66C91.2485 21.34 91.1885 20.98 91.1885 20.58C91.1885 20.1733 91.2485 19.8133 91.3685 19.5C91.4952 19.18 91.6618 18.91 91.8685 18.69C92.0752 18.47 92.3118 18.3033 92.5785 18.19C92.8518 18.0767 93.1385 18.02 93.4385 18.02C93.7385 18.02 94.0218 18.0767 94.2885 18.19C94.5618 18.3033 94.8018 18.47 95.0085 18.69C95.2152 18.91 95.3785 19.18 95.4985 19.5C95.6252 19.8133 95.6885 20.1733 95.6885 20.58C95.6885 20.98 95.6252 21.34 95.4985 21.66C95.3785 21.9733 95.2152 22.24 95.0085 22.46C94.8018 22.6733 94.5618 22.8367 94.2885 22.95C94.0218 23.0633 93.7385 23.12 93.4385 23.12ZM93.4385 22.44C93.6452 22.44 93.8352 22.3967 94.0085 22.31C94.1818 22.2167 94.3285 22.09 94.4485 21.93C94.5752 21.7633 94.6718 21.5667 94.7385 21.34C94.8052 21.1133 94.8385 20.86 94.8385 20.58C94.8385 20.3 94.8052 20.0467 94.7385 19.82C94.6718 19.5867 94.5752 19.3867 94.4485 19.22C94.3285 19.0533 94.1818 18.9267 94.0085 18.84C93.8352 18.7467 93.6452 18.7 93.4385 18.7C93.2318 18.7 93.0418 18.7467 92.8685 18.84C92.6952 18.9267 92.5452 19.0533 92.4185 19.22C92.2985 19.3867 92.2052 19.5867 92.1385 19.82C92.0718 20.0467 92.0385 20.3 92.0385 20.58C92.0385 20.86 92.0718 21.1133 92.1385 21.34C92.2052 21.5667 92.2985 21.7633 92.4185 21.93C92.5452 22.09 92.6952 22.2167 92.8685 22.31C93.0418 22.3967 93.2318 22.44 93.4385 22.44ZM97.9517 23.12C97.5451 23.12 97.2051 23 96.9317 22.76C96.6651 22.52 96.5317 22.18 96.5317 21.74C96.5317 21.2067 96.7684 20.8 97.2417 20.52C97.7151 20.2333 98.4717 20.0333 99.5117 19.92C99.5117 19.7667 99.4951 19.6167 99.4617 19.47C99.4351 19.3233 99.3851 19.1933 99.3117 19.08C99.2384 18.9667 99.1351 18.8767 99.0017 18.81C98.8751 18.7367 98.7117 18.7 98.5117 18.7C98.2317 18.7 97.9684 18.7533 97.7217 18.86C97.4751 18.9667 97.2551 19.0867 97.0617 19.22L96.7417 18.65C96.9684 18.5033 97.2451 18.3633 97.5717 18.23C97.8984 18.09 98.2584 18.02 98.6517 18.02C99.2451 18.02 99.6751 18.2033 99.9417 18.57C100.208 18.93 100.342 19.4133 100.342 20.02V23H99.6617L99.5917 22.42H99.5617C99.3284 22.6133 99.0784 22.78 98.8117 22.92C98.5451 23.0533 98.2584 23.12 97.9517 23.12ZM98.1917 22.46C98.4251 22.46 98.6451 22.4067 98.8517 22.3C99.0584 22.1867 99.2784 22.0233 99.5117 21.81V20.46C99.1051 20.5133 98.7617 20.5767 98.4817 20.65C98.2084 20.7233 97.9851 20.81 97.8117 20.91C97.6451 21.01 97.5217 21.1267 97.4417 21.26C97.3684 21.3867 97.3317 21.5267 97.3317 21.68C97.3317 21.96 97.4151 22.16 97.5817 22.28C97.7484 22.4 97.9517 22.46 98.1917 22.46ZM103.531 23.12C102.917 23.12 102.427 22.9 102.061 22.46C101.701 22.02 101.521 21.3933 101.521 20.58C101.521 20.1867 101.577 19.8333 101.691 19.52C101.811 19.2 101.967 18.93 102.161 18.71C102.354 18.49 102.577 18.32 102.831 18.2C103.084 18.08 103.351 18.02 103.631 18.02C103.911 18.02 104.154 18.07 104.361 18.17C104.567 18.27 104.777 18.4067 104.991 18.58L104.951 17.75V15.88H105.781V23H105.101L105.031 22.43H105.001C104.807 22.6167 104.584 22.78 104.331 22.92C104.084 23.0533 103.817 23.12 103.531 23.12ZM103.711 22.43C103.937 22.43 104.151 22.3767 104.351 22.27C104.551 22.1567 104.751 21.9867 104.951 21.76V19.22C104.744 19.0333 104.544 18.9033 104.351 18.83C104.164 18.75 103.971 18.71 103.771 18.71C103.577 18.71 103.394 18.7567 103.221 18.85C103.054 18.9367 102.907 19.0633 102.781 19.23C102.654 19.39 102.554 19.5833 102.481 19.81C102.407 20.0367 102.371 20.29 102.371 20.57C102.371 21.1567 102.487 21.6133 102.721 21.94C102.954 22.2667 103.284 22.43 103.711 22.43ZM110.47 23L108.72 18.14H109.57L110.49 20.9C110.563 21.14 110.636 21.38 110.71 21.62C110.79 21.86 110.866 22.0967 110.94 22.33H110.98C111.053 22.0967 111.126 21.86 111.2 21.62C111.273 21.38 111.346 21.14 111.42 20.9L112.34 18.14H113.15L111.43 23H110.47ZM114.088 23V18.14H114.908V23H114.088ZM114.508 17.14C114.348 17.14 114.211 17.09 114.098 16.99C113.991 16.89 113.938 16.7633 113.938 16.61C113.938 16.45 113.991 16.3233 114.098 16.23C114.211 16.13 114.348 16.08 114.508 16.08C114.668 16.08 114.801 16.13 114.908 16.23C115.021 16.3233 115.078 16.45 115.078 16.61C115.078 16.7633 115.021 16.89 114.908 16.99C114.801 17.09 114.668 17.14 114.508 17.14ZM117.669 23.12C117.262 23.12 116.922 23 116.649 22.76C116.382 22.52 116.249 22.18 116.249 21.74C116.249 21.2067 116.485 20.8 116.959 20.52C117.432 20.2333 118.189 20.0333 119.229 19.92C119.229 19.7667 119.212 19.6167 119.179 19.47C119.152 19.3233 119.102 19.1933 119.029 19.08C118.955 18.9667 118.852 18.8767 118.719 18.81C118.592 18.7367 118.429 18.7 118.229 18.7C117.949 18.7 117.685 18.7533 117.439 18.86C117.192 18.9667 116.972 19.0867 116.779 19.22L116.459 18.65C116.685 18.5033 116.962 18.3633 117.289 18.23C117.615 18.09 117.975 18.02 118.369 18.02C118.962 18.02 119.392 18.2033 119.659 18.57C119.925 18.93 120.059 19.4133 120.059 20.02V23H119.379L119.309 22.42H119.279C119.045 22.6133 118.795 22.78 118.529 22.92C118.262 23.0533 117.975 23.12 117.669 23.12ZM117.909 22.46C118.142 22.46 118.362 22.4067 118.569 22.3C118.775 22.1867 118.995 22.0233 119.229 21.81V20.46C118.822 20.5133 118.479 20.5767 118.199 20.65C117.925 20.7233 117.702 20.81 117.529 20.91C117.362 21.01 117.239 21.1267 117.159 21.26C117.085 21.3867 117.049 21.5267 117.049 21.68C117.049 21.96 117.132 22.16 117.299 22.28C117.465 22.4 117.669 22.46 117.909 22.46Z" fill="#232224"/>
<path d="M66.99 32.71L66.782 33.49H68.589L68.394 32.71C68.2727 32.2853 68.1557 31.8347 68.043 31.358C67.9303 30.8813 67.8177 30.422 67.705 29.98H67.653C67.549 30.4307 67.4407 30.8943 67.328 31.371C67.224 31.839 67.1113 32.2853 66.99 32.71ZM63.922 37L66.574 28.524H68.875L71.527 37H69.499L68.979 34.985H66.392L65.872 37H63.922ZM72.2971 39.392V30.552H73.8571L73.9871 31.189H74.0391C74.2905 30.9637 74.5721 30.7773 74.8841 30.63C75.2048 30.474 75.5341 30.396 75.8721 30.396C76.2621 30.396 76.6131 30.474 76.9251 30.63C77.2371 30.786 77.5015 31.007 77.7181 31.293C77.9348 31.579 78.0995 31.9257 78.2121 32.333C78.3335 32.7317 78.3941 33.178 78.3941 33.672C78.3941 34.2267 78.3161 34.7207 78.1601 35.154C78.0128 35.5787 77.8091 35.9427 77.5491 36.246C77.2978 36.5407 77.0075 36.766 76.6781 36.922C76.3575 37.078 76.0238 37.156 75.6771 37.156C75.3998 37.156 75.1311 37.0997 74.8711 36.987C74.6111 36.8657 74.3685 36.6967 74.1431 36.48L74.2081 37.507V39.392H72.2971ZM75.2351 35.596C75.5645 35.596 75.8461 35.4487 76.0801 35.154C76.3141 34.8507 76.4311 34.3653 76.4311 33.698C76.4311 32.5367 76.0585 31.956 75.3131 31.956C74.9405 31.956 74.5721 32.151 74.2081 32.541V35.18C74.3815 35.336 74.5548 35.4443 74.7281 35.505C74.9015 35.5657 75.0705 35.596 75.2351 35.596ZM79.7493 39.392V30.552H81.3093L81.4393 31.189H81.4913C81.7426 30.9637 82.0243 30.7773 82.3363 30.63C82.657 30.474 82.9863 30.396 83.3243 30.396C83.7143 30.396 84.0653 30.474 84.3773 30.63C84.6893 30.786 84.9536 31.007 85.1703 31.293C85.387 31.579 85.5516 31.9257 85.6643 32.333C85.7856 32.7317 85.8463 33.178 85.8463 33.672C85.8463 34.2267 85.7683 34.7207 85.6123 35.154C85.465 35.5787 85.2613 35.9427 85.0013 36.246C84.75 36.5407 84.4596 36.766 84.1303 36.922C83.8096 37.078 83.476 37.156 83.1293 37.156C82.852 37.156 82.5833 37.0997 82.3233 36.987C82.0633 36.8657 81.8206 36.6967 81.5953 36.48L81.6603 37.507V39.392H79.7493ZM82.6873 35.596C83.0166 35.596 83.2983 35.4487 83.5323 35.154C83.7663 34.8507 83.8833 34.3653 83.8833 33.698C83.8833 32.5367 83.5106 31.956 82.7653 31.956C82.3926 31.956 82.0243 32.151 81.6603 32.541V35.18C81.8336 35.336 82.007 35.4443 82.1803 35.505C82.3536 35.5657 82.5226 35.596 82.6873 35.596ZM92.547 37.156C91.9923 37.156 91.4377 37.0563 90.883 36.857C90.337 36.649 89.8473 36.3413 89.414 35.934L90.506 34.621C90.8093 34.881 91.143 35.0933 91.507 35.258C91.8797 35.4227 92.2437 35.505 92.599 35.505C92.9977 35.505 93.2923 35.4313 93.483 35.284C93.6823 35.1367 93.782 34.9373 93.782 34.686C93.782 34.556 93.7517 34.4433 93.691 34.348C93.639 34.2527 93.5567 34.1703 93.444 34.101C93.34 34.023 93.21 33.9537 93.054 33.893C92.9067 33.8237 92.742 33.75 92.56 33.672L91.455 33.204C91.2383 33.1173 91.026 33.0047 90.818 32.866C90.6187 32.7273 90.4367 32.567 90.272 32.385C90.116 32.1943 89.9903 31.9777 89.895 31.735C89.7997 31.4837 89.752 31.202 89.752 30.89C89.752 30.5433 89.8257 30.2183 89.973 29.915C90.1203 29.603 90.3283 29.3343 90.597 29.109C90.8657 28.875 91.182 28.693 91.546 28.563C91.9187 28.433 92.326 28.368 92.768 28.368C93.262 28.368 93.7473 28.4633 94.224 28.654C94.7093 28.8447 95.134 29.122 95.498 29.486L94.523 30.695C94.2457 30.4783 93.9683 30.3137 93.691 30.201C93.4137 30.0797 93.106 30.019 92.768 30.019C92.4387 30.019 92.1743 30.0883 91.975 30.227C91.7843 30.357 91.689 30.5433 91.689 30.786C91.689 30.916 91.7193 31.0287 91.78 31.124C91.8493 31.2107 91.9403 31.293 92.053 31.371C92.1743 31.4403 92.313 31.5097 92.469 31.579C92.625 31.6397 92.794 31.709 92.976 31.787L94.068 32.229C94.588 32.437 94.9953 32.723 95.29 33.087C95.5933 33.451 95.745 33.932 95.745 34.53C95.745 34.8853 95.6713 35.2233 95.524 35.544C95.3853 35.856 95.1773 36.1333 94.9 36.376C94.6313 36.61 94.2977 36.8007 93.899 36.948C93.5003 37.0867 93.0497 37.156 92.547 37.156ZM99.1425 37.156C98.7438 37.156 98.4015 37.0953 98.1155 36.974C97.8381 36.8527 97.6085 36.6837 97.4265 36.467C97.2531 36.2503 97.1231 35.9903 97.0365 35.687C96.9585 35.375 96.9195 35.0327 96.9195 34.66V32.047H96.0355V30.63L97.0235 30.552L97.2445 28.836H98.8305V30.552H100.377V32.047H98.8305V34.634C98.8305 34.998 98.9041 35.2623 99.0515 35.427C99.2075 35.583 99.4111 35.661 99.6625 35.661C99.7665 35.661 99.8705 35.648 99.9745 35.622C100.087 35.596 100.187 35.5657 100.273 35.531L100.572 36.922C100.399 36.974 100.195 37.026 99.9615 37.078C99.7275 37.13 99.4545 37.156 99.1425 37.156ZM104.177 37.156C103.769 37.156 103.375 37.0823 102.994 36.935C102.612 36.779 102.274 36.558 101.98 36.272C101.694 35.986 101.464 35.635 101.291 35.219C101.117 34.7943 101.031 34.3133 101.031 33.776C101.031 33.2387 101.117 32.762 101.291 32.346C101.464 31.9213 101.694 31.566 101.98 31.28C102.274 30.994 102.612 30.7773 102.994 30.63C103.375 30.474 103.769 30.396 104.177 30.396C104.584 30.396 104.974 30.474 105.347 30.63C105.728 30.7773 106.062 30.994 106.348 31.28C106.642 31.566 106.876 31.9213 107.05 32.346C107.223 32.762 107.31 33.2387 107.31 33.776C107.31 34.3133 107.223 34.7943 107.05 35.219C106.876 35.635 106.642 35.986 106.348 36.272C106.062 36.558 105.728 36.779 105.347 36.935C104.974 37.0823 104.584 37.156 104.177 37.156ZM104.177 35.609C104.567 35.609 104.861 35.4443 105.061 35.115C105.26 34.7857 105.36 34.3393 105.36 33.776C105.36 33.2127 105.26 32.7663 105.061 32.437C104.861 32.1077 104.567 31.943 104.177 31.943C103.778 31.943 103.479 32.1077 103.28 32.437C103.089 32.7663 102.994 33.2127 102.994 33.776C102.994 34.3393 103.089 34.7857 103.28 35.115C103.479 35.4443 103.778 35.609 104.177 35.609ZM108.618 37V30.552H110.178L110.308 31.683H110.36C110.594 31.241 110.876 30.916 111.205 30.708C111.535 30.5 111.864 30.396 112.193 30.396C112.375 30.396 112.523 30.409 112.635 30.435C112.757 30.4523 112.865 30.4827 112.96 30.526L112.648 32.177C112.527 32.1423 112.414 32.1163 112.31 32.099C112.206 32.0817 112.085 32.073 111.946 32.073C111.704 32.073 111.448 32.1597 111.179 32.333C110.919 32.5063 110.703 32.814 110.529 33.256V37H108.618ZM116.557 37.156C116.098 37.156 115.669 37.0823 115.27 36.935C114.872 36.779 114.525 36.558 114.23 36.272C113.936 35.9773 113.706 35.622 113.541 35.206C113.377 34.79 113.294 34.3133 113.294 33.776C113.294 33.256 113.381 32.788 113.554 32.372C113.728 31.9473 113.953 31.592 114.23 31.306C114.516 31.0113 114.841 30.786 115.205 30.63C115.569 30.474 115.946 30.396 116.336 30.396C116.796 30.396 117.194 30.474 117.532 30.63C117.879 30.786 118.165 31.0027 118.39 31.28C118.624 31.5573 118.798 31.8867 118.91 32.268C119.023 32.6407 119.079 33.048 119.079 33.49C119.079 33.6633 119.071 33.828 119.053 33.984C119.036 34.14 119.019 34.257 119.001 34.335H115.14C115.227 34.803 115.418 35.1497 115.712 35.375C116.016 35.5917 116.384 35.7 116.817 35.7C117.277 35.7 117.74 35.557 118.208 35.271L118.845 36.428C118.516 36.6533 118.148 36.831 117.74 36.961C117.342 37.091 116.947 37.156 116.557 37.156ZM115.127 33.074H117.454C117.454 32.71 117.372 32.4153 117.207 32.19C117.043 31.9647 116.765 31.852 116.375 31.852C116.072 31.852 115.803 31.9517 115.569 32.151C115.344 32.3503 115.197 32.658 115.127 33.074Z" fill="#232224"/>
<path d="M37.0097 27.8722C36.8389 24.858 38.9487 21.7813 42.0511 21.7813C42.7655 21.7813 43.0895 21.9505 43.8676 22.1971C44.2842 22.3291 44.9902 22.696 45.3984 22.696C45.8066 22.696 46.2964 22.4257 46.9572 22.1789C47.8946 21.8287 48.449 21.7913 48.9906 21.7813C50.8072 21.7813 52.1408 22.5548 52.9911 23.7562C51.5876 24.6864 50.848 25.8142 50.8071 27.6436C50.8071 29.3066 51.8481 30.9281 53.5217 31.6557C53.1135 33.4019 50.9092 36.9983 49.0927 36.9983C48.4689 36.9619 48.0856 36.8628 47.3578 36.5825C46.8155 36.3404 46.0923 36.1667 45.6229 36.1667C45.133 36.146 44.584 36.3077 43.8982 36.5825C43.3165 36.8156 42.9699 36.9479 42.1735 36.9983C40.6631 37.0937 37.3123 33.2148 37.0097 27.8722Z" fill="url(#paint0_linear)"/>
<path d="M46.3781 18.5383C45.5355 19.4625 45.2147 20.6795 45.2759 21.7813C46.6638 21.6774 47.6231 21.0953 48.5008 20.0143C49.3784 18.9333 49.3849 18.1478 49.3784 17C48.3569 17.1693 47.1741 17.6652 46.3781 18.5383Z" fill="url(#paint1_linear)"/>
<defs>
<linearGradient id="paint0_linear" x1="50.9609" y1="19.7" x2="37.7443" y2="32.2849" gradientUnits="userSpaceOnUse">
<stop stop-color="#A950C4"/>
<stop offset="1" stop-color="#82269E"/>
</linearGradient>
<linearGradient id="paint1_linear" x1="50.9609" y1="19.7" x2="37.7443" y2="32.2849" gradientUnits="userSpaceOnUse">
<stop stop-color="#A950C4"/>
<stop offset="1" stop-color="#82269E"/>
</linearGradient>
</defs>
</svg>
