<svg width="48" height="48" viewBox="0 0 48 48" fill="none" xmlns="http://www.w3.org/2000/svg">
<path d="M8.0187 25.1136C7.688 19.5372 11.7743 13.8454 17.7831 13.8454C19.1668 13.8454 19.7943 14.1584 21.3014 14.6146C22.1083 14.8588 23.4757 15.5376 24.2663 15.5376C25.0569 15.5376 26.0057 15.0376 27.2855 14.581C29.1011 13.9332 30.1749 13.8639 31.2239 13.8454C34.7423 13.8454 37.3253 15.2763 38.9722 17.4989C36.2539 19.2198 34.8213 21.3063 34.7423 24.6906C34.7423 27.7673 36.7584 30.767 40 32.113C39.2094 35.3435 34.9399 41.9968 31.4216 41.9968C30.2135 41.9296 29.471 41.7461 28.0614 41.2276C27.011 40.7797 25.6104 40.4585 24.7012 40.4585C23.7524 40.42 22.689 40.7192 21.3607 41.2276C20.2341 41.6589 19.5628 41.9037 18.0203 41.9968C15.0949 42.1734 8.60485 34.9974 8.0187 25.1136Z" fill="url(#appstore0_linear)"/>
<path d="M26.1638 7.84591C24.532 9.55554 23.9105 11.8071 24.0291 13.8454C26.7173 13.6531 28.5753 12.5763 30.2752 10.5764C31.975 8.57661 31.9875 7.12343 31.975 5C29.9965 5.31321 27.7056 6.23066 26.1638 7.84591Z" fill="url(#appstore1_linear)"/>
<defs>
<linearGradient id="appstore0_linear" x1="35.04" y1="9.995" x2="10.5601" y2="34.3992" gradientUnits="userSpaceOnUse">
<stop stop-color="#A950C4"/>
<stop offset="1" stop-color="#82269E"/>
</linearGradient>
<linearGradient id="appstore1_linear" x1="35.04" y1="9.995" x2="10.5601" y2="34.3992" gradientUnits="userSpaceOnUse">
<stop stop-color="#A950C4"/>
<stop offset="1" stop-color="#82269E"/>
</linearGradient>
</defs>
</svg>
