<svg viewBox="0 0 819 1143" fill="none" xmlns="http://www.w3.org/2000/svg">
<g id="fignu3">
<g id="fignu3-shadow" filter="url(#filter0_f)">
<ellipse class="fignu3-shadow" cx="397.5" cy="1034" rx="317.5" ry="30" fill="#464646" fill-opacity="0.15"/>
</g>
<g id="fignu3-card-verse" class="fignu3-card-verse">
<rect id="Rectangle 1018" width="529.684" height="336.005" rx="18.3409" transform="matrix(0.83147 0.55557 -0.285354 0.958422 125.88 67)" fill="url(#paint0_linear)"/>
<rect id="Rectangle 1019" width="529.684" height="78.7511" transform="matrix(0.83147 0.55557 -0.285354 0.958422 118.972 90.2031)" fill="#D6D6D6"/>
<rect id="Rectangle 1020" width="115.502" height="76.126" rx="38.063" transform="matrix(0.83147 0.55557 -0.285354 0.958422 93.208 235.689)" fill="url(#paint1_linear)"/>
<text id="5032 9334 3764 9846" transform="matrix(0.83147 0.55557 -0.285354 0.958422 66.4117 325.69)" fill="#FBF8FC" xml:space="preserve" style="white-space: pre" font-family="Sora" font-size="26.4108" letter-spacing="0.03em"><tspan x="0" y="27.4797">5032 9334 3764 9846</tspan></text>
<text id="gold" transform="matrix(0.83147 0.55557 -0.285354 0.958422 131.843 204.18)" fill="#F3F0F5" xml:space="preserve" style="white-space: pre" font-family="Sora" font-size="26.4108" font-weight="600" letter-spacing="0em"><tspan x="0" y="27.4797">gold</tspan></text>
<text id="02/17" transform="matrix(0.83147 0.55557 -0.285354 0.958422 79.6802 384.294)" fill="#FBF8FC" xml:space="preserve" style="white-space: pre" font-family="Sora" font-size="13.2054" letter-spacing="0em"><tspan x="0" y="13.4898">02/17</tspan></text>
<text id="02/20" transform="matrix(0.83147 0.55557 -0.285354 0.958422 141.9 425.868)" fill="#FBF8FC" xml:space="preserve" style="white-space: pre" font-family="Sora" font-size="13.2054" letter-spacing="0em"><tspan x="0" y="13.4898">02/20</tspan></text>
<text id="123" transform="matrix(0.83147 0.55557 -0.285354 0.958422 212.049 472.74)" fill="#FBF8FC" xml:space="preserve" style="white-space: pre" font-family="Sora" font-size="13.2054" letter-spacing="0em"><tspan x="0" y="13.4898">123</tspan></text>
<g id="Group 346">
<text id="cirrus." transform="matrix(0.83147 0.55557 -0.285354 0.958422 418.382 617.352)" fill="#FBF9FC" xml:space="preserve" style="white-space: pre" font-family="Sora" font-size="9.53725" font-weight="600" letter-spacing="0em"><tspan x="0" y="9.74266">cirrus.</tspan></text>
<circle id="Ellipse 7" r="22.7427" transform="matrix(0.83147 0.55557 -0.285354 0.958422 426.301 595.667)" fill="#0167B2"/>
<circle id="Ellipse 8" r="22.7427" transform="matrix(0.83147 0.55557 -0.285354 0.958422 449.481 611.155)" fill="#02A1E2"/>
<path id="Intersect" fill-rule="evenodd" clip-rule="evenodd" d="M432.705 620.515C438.377 619.533 443.131 615.212 445.224 608.18C447.318 601.149 446.288 592.963 442.986 585.984C437.313 586.967 432.56 591.288 430.467 598.319C428.373 605.351 429.403 613.536 432.705 620.515Z" fill="#207CBD"/>
</g>
<text id="member since" transform="matrix(0.83147 0.55557 -0.285354 0.958422 54.6523 370.1)" fill="#FBF8FC" xml:space="preserve" style="white-space: pre" font-family="Source Sans Pro" font-size="4.40181" letter-spacing="0.1em"><tspan x="0" y="4.56484">MEMBER&#10;</tspan><tspan x="0" y="10.5648">SINCE</tspan></text>
<text id="valid thru" transform="matrix(0.83147 0.55557 -0.285354 0.958422 122.972 415.75)" fill="#FBF8FC" xml:space="preserve" style="white-space: pre" font-family="Source Sans Pro" font-size="4.40181" letter-spacing="0.1em"><tspan x="0" y="4.56484">VALID&#10;</tspan><tspan x="0" y="10.5648">THRU</tspan></text>
<text id="security code" transform="matrix(0.83147 0.55557 -0.285354 0.958422 185.191 457.323)" fill="#FBF8FC" xml:space="preserve" style="white-space: pre" font-family="Source Sans Pro" font-size="4.40181" letter-spacing="0.1em"><tspan x="0" y="4.56484">SECURITY&#10;</tspan><tspan x="0" y="10.5648">CODE</tspan></text>
<path id="Vector" d="M282.942 330.431C282.83 330.804 282.595 331.076 282.288 331.187C281.981 331.298 281.626 331.239 281.303 331.022L273.983 326.131L270.706 327.314L274.055 316.063C274.166 315.691 274.401 315.419 274.708 315.308C275.016 315.197 275.37 315.256 275.694 315.472L284.234 321.179C284.557 321.395 284.823 321.75 284.974 322.167C285.124 322.583 285.146 323.027 285.035 323.4L282.942 330.431Z" stroke="#FBF8FC" stroke-width="0.733634" stroke-linecap="round" stroke-linejoin="round"/>
<g id="Group 347">
<path id="Vector_2" d="M267.403 360.513C270.772 362.764 274.44 361.441 275.596 357.558C276.753 353.674 274.959 348.701 271.59 346.45C268.221 344.199 264.553 345.523 263.397 349.406C262.24 353.289 264.034 358.262 267.403 360.513Z" stroke="#FBF8FC" stroke-width="0.733634" stroke-linecap="round" stroke-linejoin="round"/>
<path id="Vector_3" d="M268.349 350.186C268.633 349.812 269.034 349.605 269.481 349.602C269.929 349.598 270.395 349.799 270.796 350.167C271.196 350.536 271.507 351.05 271.672 351.617C271.836 352.184 271.845 352.768 271.696 353.266C271.278 354.672 269.238 354.152 269.238 354.152" stroke="#FBF8FC" stroke-width="0.733634" stroke-linecap="round" stroke-linejoin="round"/>
<path id="Vector_4" d="M268.45 356.998L268.456 357.002" stroke="#FBF8FC" stroke-width="0.733634" stroke-linecap="round" stroke-linejoin="round"/>
</g>
<text id="Est&#195;&#161; com d&#195;&#186;vidas? Nosso app pode te ajudar." transform="matrix(0.83147 0.55557 -0.285354 0.958422 294.64 323.073)" fill="#FBF8FC" xml:space="preserve" style="white-space: pre" font-family="Source Sans Pro" font-size="6.60271" letter-spacing="0em"><tspan x="0" y="7.34726">Est&#xe1; com d&#xfa;vidas?&#10;</tspan><tspan x="0" y="17.3473">Nosso app pode te ajudar.</tspan></text>
<text id="Fale com a gente: 0800 591 2117" transform="matrix(0.83147 0.55557 -0.285354 0.958422 285.847 352.605)" fill="#FBF8FC" xml:space="preserve" style="white-space: pre" font-family="Source Sans Pro" font-size="6.60271" letter-spacing="0em"><tspan x="0" y="7.34726">Fale com a gente:&#10;</tspan><tspan x="0" y="17.3473">0800 591 2117</tspan></text>
<circle id="Ellipse 170" r="23.1095" transform="matrix(0.83147 0.55557 -0.285354 0.958422 144.132 313.974)" fill="#D9D9D9"/>
<path id="Subtract" fill-rule="evenodd" clip-rule="evenodd" d="M134.078 262.998L124.856 256.836C107.377 245.157 88.3452 252.022 82.3466 272.17C76.348 292.317 85.6546 318.118 103.133 329.797L112.471 336.036C140.484 321.181 146.82 306.267 134.078 262.998Z" fill="url(#paint2_linear)"/>
</g>
<g id="fignu3-card-front" class="fignu3-card-front">
<rect id="Rectangle 1021" width="529.684" height="336.005" rx="18.3409" transform="matrix(0.760406 -0.649448 0.468701 0.883357 230 641.002)" fill="url(#paint3_linear)"/>
<text id="Nasser Y S Ali" transform="matrix(0.760406 -0.649448 0.468701 0.883357 469.51 754.75)" fill="#FBF8FC" xml:space="preserve" style="white-space: pre" font-family="Sora" font-size="17.6072" font-weight="600" letter-spacing="0.1em"><tspan x="0" y="18.4865">NASSER Y S ALI</tspan></text>
<path id="Union" fill-rule="evenodd" clip-rule="evenodd" d="M393.175 802.863C393.179 802.871 393.181 802.875 393.182 802.875C393.183 802.874 393.181 802.868 393.179 802.856C393.167 802.805 393.129 802.643 393.122 802.34C393.113 801.946 393.16 801.419 393.324 800.821C393.643 799.655 394.426 798.143 396.241 796.808C403.648 791.36 410.517 793.699 412.685 797.785L426.441 823.711C426.583 823.979 426.595 824.113 426.596 824.146C426.581 824.182 426.517 824.304 426.287 824.501L421.979 828.18C421.748 828.377 421.635 828.406 421.603 828.41C421.579 828.397 421.486 828.332 421.344 828.065L408.646 804.132C407.743 802.431 406.143 801.377 404.468 801.033C402.788 800.688 400.869 801.025 399.292 802.371L394.903 806.12L393.175 802.863ZM426.597 824.141C426.598 824.137 426.599 824.134 426.599 824.134C426.599 824.134 426.599 824.137 426.597 824.141ZM421.594 828.41C421.593 828.409 421.595 828.409 421.599 828.41C421.595 828.41 421.594 828.41 421.594 828.41ZM400.448 804.549L396.058 808.297L411.161 836.762C411.523 837.444 411.825 838.302 411.618 839.279C411.416 840.236 410.814 840.879 410.288 841.329L405.901 845.075C405.411 845.494 404.751 845.901 404.009 845.824C403.228 845.744 402.651 845.163 402.237 844.383L389.395 820.179C388.679 818.83 388.49 816.691 388.762 814.703C389.038 812.687 389.841 810.444 391.459 809.062L393.029 807.721L391.298 804.458C391.044 803.979 390.937 803.295 390.921 802.638C390.905 801.928 390.99 801.074 391.242 800.153C391.754 798.281 392.936 796.203 395.226 794.519C403.375 788.525 411.633 790.669 414.559 796.184L428.315 822.111C428.656 822.753 428.909 823.571 428.748 824.5C428.585 825.443 428.055 826.154 427.442 826.678L423.134 830.357C422.521 830.881 421.802 831.236 421.052 831.073C420.313 830.913 419.811 830.308 419.47 829.665L406.772 805.733C406.235 804.723 405.185 803.956 403.935 803.699C402.691 803.444 401.41 803.727 400.448 804.549ZM392.614 811.239L394.184 809.898L409.287 838.362C409.404 838.582 409.453 838.725 409.473 838.806C409.422 838.878 409.32 838.991 409.133 839.152L404.746 842.898C404.508 843.102 404.396 843.127 404.373 843.13C404.34 843.113 404.248 843.039 404.111 842.783L391.269 818.578C390.927 817.934 390.715 816.528 390.933 814.936C391.147 813.372 391.726 811.998 392.614 811.239ZM404.386 843.136C404.386 843.136 404.383 843.135 404.376 843.132C404.383 843.133 404.386 843.135 404.386 843.136ZM452.222 810.124C452.218 810.115 452.215 810.111 452.215 810.112C452.214 810.112 452.216 810.118 452.218 810.13C452.23 810.181 452.268 810.344 452.275 810.646C452.284 811.04 452.237 811.567 452.073 812.165C451.754 813.332 450.97 814.844 449.156 816.178C441.749 821.626 434.88 819.287 432.712 815.202L418.956 789.275C418.814 789.007 418.802 788.873 418.801 788.841C418.816 788.805 418.88 788.682 419.11 788.486L423.418 784.806C423.649 784.609 423.762 784.58 423.794 784.577C423.817 784.589 423.911 784.654 424.053 784.922L436.751 808.854C437.654 810.556 439.254 811.61 440.928 811.953C442.609 812.299 444.528 811.962 446.104 810.615L450.494 806.866L452.222 810.124ZM418.8 788.845C418.799 788.85 418.798 788.852 418.798 788.852C418.797 788.852 418.798 788.85 418.8 788.845ZM423.803 784.577C423.803 784.577 423.801 784.577 423.797 784.576C423.801 784.576 423.803 784.576 423.803 784.577ZM444.949 808.438L449.339 804.689L434.236 776.225C433.874 775.542 433.572 774.684 433.778 773.707C433.98 772.751 434.582 772.107 435.109 771.657L439.496 767.911C439.986 767.492 440.646 767.086 441.387 767.162C442.168 767.243 442.746 767.824 443.159 768.603L456.002 792.807C456.718 794.157 456.907 796.295 456.635 798.284C456.359 800.299 455.556 802.542 453.938 803.925L452.368 805.265L454.099 808.528C454.353 809.007 454.46 809.692 454.475 810.349C454.492 811.058 454.407 811.913 454.155 812.834C453.643 814.706 452.46 816.783 450.171 818.467C442.022 824.461 433.764 822.317 430.838 816.802L417.081 790.876C416.741 790.233 416.488 789.415 416.649 788.487C416.812 787.543 417.342 786.832 417.955 786.308L422.263 782.629C422.876 782.105 423.595 781.75 424.345 781.913C425.084 782.073 425.586 782.678 425.927 783.321L438.625 807.253C439.161 808.264 440.212 809.03 441.462 809.287C442.706 809.542 443.987 809.26 444.949 808.438ZM452.783 801.747L451.213 803.088L436.11 774.624C435.993 774.404 435.943 774.261 435.924 774.18C435.975 774.109 436.076 773.995 436.264 773.834L440.651 770.088C440.889 769.885 441.001 769.859 441.024 769.856C441.057 769.874 441.149 769.947 441.285 770.204L454.128 794.408C454.47 795.053 454.682 796.458 454.464 798.05C454.25 799.615 453.671 800.989 452.783 801.747ZM441.011 769.851C441.011 769.85 441.014 769.851 441.021 769.854C441.014 769.853 441.011 769.851 441.011 769.851Z" fill="#FBF8FC"/>
<circle id="Ellipse 171" r="33.5641" transform="matrix(0.760406 -0.649448 0.468701 0.883357 584.355 419.812)" fill="#E71924"/>
<circle id="Ellipse 172" r="33.5641" transform="matrix(0.760406 -0.649448 0.468701 0.883357 615.46 393.245)" fill="#F99F19"/>
<path id="Intersect_2" fill-rule="evenodd" clip-rule="evenodd" d="M612.32 429.922C615.507 419.323 614.896 407.472 609.816 397.897C604.735 388.323 596.311 383.145 587.372 382.902C584.185 393.501 584.796 405.352 589.876 414.927C594.957 424.502 603.381 429.68 612.32 429.922Z" fill="#F26520"/>
<g id="Group 348">
<rect id="Rectangle 344" x="0.966889" y="0.184007" width="71.8482" height="50.8706" rx="4.45774" transform="matrix(0.760406 -0.649448 0.468701 0.883357 327.751 704.374)" fill="url(#paint4_linear)" stroke="#211F21" stroke-width="1.57332"/>
<path id="Vector 9" d="M336.515 718.332L352.865 704.367" stroke="#211F21" stroke-width="1.46727" stroke-linecap="round"/>
<path id="Vector 10" d="M344.134 732.692L360.126 719.034" stroke="#211F21" stroke-width="1.46727" stroke-linecap="round"/>
<path id="Vector 11" d="M382.418 699.996L398.369 686.372" stroke="#211F21" stroke-width="1.46727" stroke-linecap="round"/>
<path id="Vector 12" d="M374.804 686.302L390.995 672.474" stroke="#211F21" stroke-width="1.46727" stroke-linecap="round"/>
<circle id="Ellipse 12" r="1.57332" transform="matrix(0.760406 -0.649448 0.468701 0.883357 359.453 687.295)" fill="#211F21"/>
<g id="Vector 13">
<path d="M429.669 664.301C428.059 653.213 425.826 648.085 417.917 642.152C417.077 641.522 417.015 640.453 417.332 639.958C417.649 639.463 418.348 639.09 419.219 639.692C428.07 645.803 430.634 651.278 432.201 663.612C432.294 664.879 431.609 665.633 430.974 665.669C430.232 665.711 429.805 665.238 429.669 664.301Z" fill="#FBF8FC"/>
<path d="M414.098 646.423C413.822 646.995 414.033 648.091 415.005 648.678C421.128 652.871 422.986 656.673 423.977 665.587C424.055 666.504 424.626 667.104 425.236 666.868C425.957 666.589 426.218 665.65 426.14 664.749C425.306 655.089 423.208 650.921 416.185 645.987C415.536 645.531 414.512 645.564 414.098 646.423Z" fill="#FBF8FC"/>
<path d="M411.708 652.84C411.233 653.582 411.535 654.442 412.292 655.034C416.232 658.11 417.801 660.381 418.315 666.384C418.366 667.462 418.683 668.382 419.497 668.066C420.312 667.751 420.58 666.922 420.524 666.179C420 658.74 417.858 656.148 413.15 652.281C412.748 651.951 412.183 652.097 411.708 652.84Z" fill="#FBF8FC"/>
<path d="M408.504 658.269C408.151 659.243 408.439 660.019 409.533 660.756C411.838 662.335 412.542 663.726 412.852 667.01C412.965 668.479 413.483 669.837 414.403 669.388C415.324 668.938 415.503 668.307 415.261 666.636C414.475 662.365 413.554 660.357 410.591 657.833C409.854 657.151 409.056 657.125 408.504 658.269Z" fill="#FBF8FC"/>
</g>
<path id="Vector 14" d="M369.701 682.582C364.959 677.835 360.521 677.295 355.935 681.212C350.352 685.98 351.395 692.266 352.742 704.135C358.07 708.203 359.788 711.378 360.485 718.728C370.379 727.588 374.973 728.995 379.486 725.052C385.468 719.943 384.046 712.599 382.218 700.166C377.612 696.212 375.839 693.374 374.564 686.575" stroke="#211F21" stroke-width="1.46727" stroke-linecap="round"/>
</g>
</g>
</g>
<defs>
<filter id="filter0_f" x="13" y="937" width="769" height="194" filterUnits="userSpaceOnUse" color-interpolation-filters="sRGB">
<feFlood flood-opacity="0" result="BackgroundImageFix"/>
<feBlend mode="normal" in="SourceGraphic" in2="BackgroundImageFix" result="shape"/>
<feGaussianBlur stdDeviation="33.5" result="effect1_foregroundBlur"/>
</filter>
<linearGradient id="paint0_linear" x1="447.583" y1="45.3606" x2="259.777" y2="386.622" gradientUnits="userSpaceOnUse">
<stop stop-color="#A950C4"/>
<stop offset="1" stop-color="#82269E"/>
</linearGradient>
<linearGradient id="paint1_linear" x1="60.8916" y1="76.298" x2="92.8047" y2="4.4018" gradientUnits="userSpaceOnUse">
<stop stop-color="#F6F3F7"/>
<stop offset="1" stop-color="#D6D6D6"/>
</linearGradient>
<linearGradient id="paint2_linear" x1="135.776" y1="268.347" x2="82.8412" y2="300.869" gradientUnits="userSpaceOnUse">
<stop stop-color="#F5F5F5"/>
<stop offset="1" stop-color="#D6D6D6"/>
</linearGradient>
<linearGradient id="paint3_linear" x1="447.583" y1="45.3606" x2="259.777" y2="386.622" gradientUnits="userSpaceOnUse">
<stop stop-color="#A950C4"/>
<stop offset="1" stop-color="#82269E"/>
</linearGradient>
<linearGradient id="paint4_linear" x1="67.2386" y1="7.24643" x2="5.6133" y2="48.3299" gradientUnits="userSpaceOnUse">
<stop stop-color="#F4F4F4"/>
<stop offset="1" stop-color="#D6D6D6"/>
</linearGradient>
</defs>
</svg>
