<svg width="168" height="54" viewBox="0 0 168 54" fill="none" xmlns="http://www.w3.org/2000/svg">
<rect width="168" height="54" rx="16" fill="#FBF8FC"/>
<path fill-rule="evenodd" clip-rule="evenodd" d="M35.4104 17.2083C35.16 17.4664 35 17.82 35 18.2294V35.3578C35 35.8292 35.212 36.2265 35.53 36.4893L45.1107 26.9086L35.4104 17.2083ZM46.1512 27.9491L37.8501 36.2502L48.2634 30.0613L46.1512 27.9491ZM49.5687 29.2855L47.1917 26.9086L49.7129 24.3874L51.6331 25.5287C52.5927 26.099 52.5927 27.4882 51.6331 28.0586L49.5687 29.2855ZM46.1512 25.8681L37.2831 17L48.4077 23.6117L46.1512 25.8681Z" fill="url(#paint0_linear)"/>
<path d="M65.81 22V16.096H67.286C68.198 16.096 68.891 16.348 69.365 16.852C69.839 17.356 70.076 18.079 70.076 19.021C70.076 19.489 70.016 19.909 69.896 20.281C69.776 20.647 69.599 20.959 69.365 21.217C69.131 21.469 68.843 21.664 68.501 21.802C68.159 21.934 67.766 22 67.322 22H65.81ZM66.557 21.388H67.232C67.922 21.388 68.438 21.181 68.78 20.767C69.128 20.353 69.302 19.771 69.302 19.021C69.302 18.271 69.128 17.698 68.78 17.302C68.438 16.906 67.922 16.708 67.232 16.708H66.557V21.388ZM72.9761 22.108C72.7061 22.108 72.4481 22.057 72.2021 21.955C71.9621 21.853 71.7491 21.706 71.5631 21.514C71.3771 21.316 71.2271 21.076 71.1131 20.794C71.0051 20.506 70.9511 20.182 70.9511 19.822C70.9511 19.456 71.0051 19.132 71.1131 18.85C71.2271 18.562 71.3771 18.319 71.5631 18.121C71.7491 17.923 71.9621 17.773 72.2021 17.671C72.4481 17.569 72.7061 17.518 72.9761 17.518C73.2461 17.518 73.5011 17.569 73.7411 17.671C73.9871 17.773 74.2031 17.923 74.3891 18.121C74.5751 18.319 74.7221 18.562 74.8301 18.85C74.9441 19.132 75.0011 19.456 75.0011 19.822C75.0011 20.182 74.9441 20.506 74.8301 20.794C74.7221 21.076 74.5751 21.316 74.3891 21.514C74.2031 21.706 73.9871 21.853 73.7411 21.955C73.5011 22.057 73.2461 22.108 72.9761 22.108ZM72.9761 21.496C73.1621 21.496 73.3331 21.457 73.4891 21.379C73.6451 21.295 73.7771 21.181 73.8851 21.037C73.9991 20.887 74.0861 20.71 74.1461 20.506C74.2061 20.302 74.2361 20.074 74.2361 19.822C74.2361 19.57 74.2061 19.342 74.1461 19.138C74.0861 18.928 73.9991 18.748 73.8851 18.598C73.7771 18.448 73.6451 18.334 73.4891 18.256C73.3331 18.172 73.1621 18.13 72.9761 18.13C72.7901 18.13 72.6191 18.172 72.4631 18.256C72.3071 18.334 72.1721 18.448 72.0581 18.598C71.9501 18.748 71.8661 18.928 71.8061 19.138C71.7461 19.342 71.7161 19.57 71.7161 19.822C71.7161 20.074 71.7461 20.302 71.8061 20.506C71.8661 20.71 71.9501 20.887 72.0581 21.037C72.1721 21.181 72.3071 21.295 72.4631 21.379C72.6191 21.457 72.7901 21.496 72.9761 21.496ZM76.8109 22L75.5959 17.626H76.3519L76.9999 20.155C77.0479 20.365 77.0929 20.569 77.1349 20.767C77.1769 20.965 77.2189 21.166 77.2609 21.37H77.2969C77.3449 21.166 77.3929 20.965 77.4409 20.767C77.4889 20.563 77.5399 20.359 77.5939 20.155L78.2689 17.626H78.9889L79.6729 20.155C79.7269 20.365 79.7779 20.569 79.8259 20.767C79.8799 20.965 79.9309 21.166 79.9789 21.37H80.0149C80.0629 21.166 80.1079 20.965 80.1499 20.767C80.1919 20.569 80.2369 20.365 80.2849 20.155L80.9239 17.626H81.6259L80.4559 22H79.5559L78.9259 19.651C78.8719 19.441 78.8209 19.234 78.7729 19.03C78.7309 18.826 78.6829 18.613 78.6289 18.391H78.5929C78.5449 18.613 78.4969 18.829 78.4489 19.039C78.4009 19.243 78.3469 19.45 78.2869 19.66L77.6749 22H76.8109ZM82.5778 22V17.626H83.1898L83.2528 18.256H83.2798C83.4898 18.046 83.7088 17.872 83.9368 17.734C84.1708 17.59 84.4408 17.518 84.7468 17.518C85.2088 17.518 85.5448 17.662 85.7548 17.95C85.9708 18.238 86.0788 18.664 86.0788 19.228V22H85.3408V19.327C85.3408 18.913 85.2748 18.616 85.1428 18.436C85.0108 18.25 84.8008 18.157 84.5128 18.157C84.2848 18.157 84.0838 18.214 83.9098 18.328C83.7358 18.442 83.5378 18.61 83.3158 18.832V22H82.5778ZM88.2827 22.108C88.0007 22.108 87.7997 22.024 87.6797 21.856C87.5597 21.688 87.4997 21.442 87.4997 21.118V15.592H88.2377V21.172C88.2377 21.292 88.2587 21.376 88.3007 21.424C88.3427 21.472 88.3907 21.496 88.4447 21.496C88.4687 21.496 88.4897 21.496 88.5077 21.496C88.5317 21.496 88.5647 21.49 88.6067 21.478L88.7057 22.036C88.6577 22.06 88.6007 22.078 88.5347 22.09C88.4687 22.102 88.3847 22.108 88.2827 22.108ZM91.4947 22.108C91.2247 22.108 90.9667 22.057 90.7207 21.955C90.4807 21.853 90.2677 21.706 90.0817 21.514C89.8957 21.316 89.7457 21.076 89.6317 20.794C89.5237 20.506 89.4697 20.182 89.4697 19.822C89.4697 19.456 89.5237 19.132 89.6317 18.85C89.7457 18.562 89.8957 18.319 90.0817 18.121C90.2677 17.923 90.4807 17.773 90.7207 17.671C90.9667 17.569 91.2247 17.518 91.4947 17.518C91.7647 17.518 92.0197 17.569 92.2597 17.671C92.5057 17.773 92.7217 17.923 92.9077 18.121C93.0937 18.319 93.2407 18.562 93.3487 18.85C93.4627 19.132 93.5197 19.456 93.5197 19.822C93.5197 20.182 93.4627 20.506 93.3487 20.794C93.2407 21.076 93.0937 21.316 92.9077 21.514C92.7217 21.706 92.5057 21.853 92.2597 21.955C92.0197 22.057 91.7647 22.108 91.4947 22.108ZM91.4947 21.496C91.6807 21.496 91.8517 21.457 92.0077 21.379C92.1637 21.295 92.2957 21.181 92.4037 21.037C92.5177 20.887 92.6047 20.71 92.6647 20.506C92.7247 20.302 92.7547 20.074 92.7547 19.822C92.7547 19.57 92.7247 19.342 92.6647 19.138C92.6047 18.928 92.5177 18.748 92.4037 18.598C92.2957 18.448 92.1637 18.334 92.0077 18.256C91.8517 18.172 91.6807 18.13 91.4947 18.13C91.3087 18.13 91.1377 18.172 90.9817 18.256C90.8257 18.334 90.6907 18.448 90.5767 18.598C90.4687 18.748 90.3847 18.928 90.3247 19.138C90.2647 19.342 90.2347 19.57 90.2347 19.822C90.2347 20.074 90.2647 20.302 90.3247 20.506C90.3847 20.71 90.4687 20.887 90.5767 21.037C90.6907 21.181 90.8257 21.295 90.9817 21.379C91.1377 21.457 91.3087 21.496 91.4947 21.496ZM95.5565 22.108C95.1905 22.108 94.8845 22 94.6385 21.784C94.3985 21.568 94.2785 21.262 94.2785 20.866C94.2785 20.386 94.4915 20.02 94.9175 19.768C95.3435 19.51 96.0245 19.33 96.9605 19.228C96.9605 19.09 96.9455 18.955 96.9155 18.823C96.8915 18.691 96.8465 18.574 96.7805 18.472C96.7145 18.37 96.6215 18.289 96.5015 18.229C96.3875 18.163 96.2405 18.13 96.0605 18.13C95.8085 18.13 95.5715 18.178 95.3495 18.274C95.1275 18.37 94.9295 18.478 94.7555 18.598L94.4675 18.085C94.6715 17.953 94.9205 17.827 95.2145 17.707C95.5085 17.581 95.8325 17.518 96.1865 17.518C96.7205 17.518 97.1075 17.683 97.3475 18.013C97.5875 18.337 97.7075 18.772 97.7075 19.318V22H97.0955L97.0325 21.478H97.0055C96.7955 21.652 96.5705 21.802 96.3305 21.928C96.0905 22.048 95.8325 22.108 95.5565 22.108ZM95.7725 21.514C95.9825 21.514 96.1805 21.466 96.3665 21.37C96.5525 21.268 96.7505 21.121 96.9605 20.929V19.714C96.5945 19.762 96.2855 19.819 96.0335 19.885C95.7875 19.951 95.5865 20.029 95.4305 20.119C95.2805 20.209 95.1695 20.314 95.0975 20.434C95.0315 20.548 94.9985 20.674 94.9985 20.812C94.9985 21.064 95.0735 21.244 95.2235 21.352C95.3735 21.46 95.5565 21.514 95.7725 21.514ZM100.578 22.108C100.026 22.108 99.5847 21.91 99.2547 21.514C98.9307 21.118 98.7687 20.554 98.7687 19.822C98.7687 19.468 98.8197 19.15 98.9217 18.868C99.0297 18.58 99.1707 18.337 99.3447 18.139C99.5187 17.941 99.7197 17.788 99.9477 17.68C100.176 17.572 100.416 17.518 100.668 17.518C100.92 17.518 101.139 17.563 101.325 17.653C101.511 17.743 101.7 17.866 101.892 18.022L101.856 17.275V15.592H102.603V22H101.991L101.928 21.487H101.901C101.727 21.655 101.526 21.802 101.298 21.928C101.076 22.048 100.836 22.108 100.578 22.108ZM100.74 21.487C100.944 21.487 101.136 21.439 101.316 21.343C101.496 21.241 101.676 21.088 101.856 20.884V18.598C101.67 18.43 101.49 18.313 101.316 18.247C101.148 18.175 100.974 18.139 100.794 18.139C100.62 18.139 100.455 18.181 100.299 18.265C100.149 18.343 100.017 18.457 99.9027 18.607C99.7887 18.751 99.6987 18.925 99.6327 19.129C99.5667 19.333 99.5337 19.561 99.5337 19.813C99.5337 20.341 99.6387 20.752 99.8487 21.046C100.059 21.34 100.356 21.487 100.74 21.487ZM106.823 22L105.248 17.626H106.013L106.841 20.11C106.907 20.326 106.973 20.542 107.039 20.758C107.111 20.974 107.18 21.187 107.246 21.397H107.282C107.348 21.187 107.414 20.974 107.48 20.758C107.546 20.542 107.612 20.326 107.678 20.11L108.506 17.626H109.235L107.687 22H106.823ZM110.079 22V17.626H110.817V22H110.079ZM110.457 16.726C110.313 16.726 110.19 16.681 110.088 16.591C109.992 16.501 109.944 16.387 109.944 16.249C109.944 16.105 109.992 15.991 110.088 15.907C110.19 15.817 110.313 15.772 110.457 15.772C110.601 15.772 110.721 15.817 110.817 15.907C110.919 15.991 110.97 16.105 110.97 16.249C110.97 16.387 110.919 16.501 110.817 16.591C110.721 16.681 110.601 16.726 110.457 16.726ZM113.302 22.108C112.936 22.108 112.63 22 112.384 21.784C112.144 21.568 112.024 21.262 112.024 20.866C112.024 20.386 112.237 20.02 112.663 19.768C113.089 19.51 113.77 19.33 114.706 19.228C114.706 19.09 114.691 18.955 114.661 18.823C114.637 18.691 114.592 18.574 114.526 18.472C114.46 18.37 114.367 18.289 114.247 18.229C114.133 18.163 113.986 18.13 113.806 18.13C113.554 18.13 113.317 18.178 113.095 18.274C112.873 18.37 112.675 18.478 112.501 18.598L112.213 18.085C112.417 17.953 112.666 17.827 112.96 17.707C113.254 17.581 113.578 17.518 113.932 17.518C114.466 17.518 114.853 17.683 115.093 18.013C115.333 18.337 115.453 18.772 115.453 19.318V22H114.841L114.778 21.478H114.751C114.541 21.652 114.316 21.802 114.076 21.928C113.836 22.048 113.578 22.108 113.302 22.108ZM113.518 21.514C113.728 21.514 113.926 21.466 114.112 21.37C114.298 21.268 114.496 21.121 114.706 20.929V19.714C114.34 19.762 114.031 19.819 113.779 19.885C113.533 19.951 113.332 20.029 113.176 20.119C113.026 20.209 112.915 20.314 112.843 20.434C112.777 20.548 112.744 20.674 112.744 20.812C112.744 21.064 112.819 21.244 112.969 21.352C113.119 21.46 113.302 21.514 113.518 21.514Z" fill="#232224"/>
<path d="M70.745 37.156C70.1643 37.156 69.6183 37.065 69.107 36.883C68.6043 36.6923 68.1667 36.415 67.794 36.051C67.4213 35.687 67.1267 35.2363 66.91 34.699C66.702 34.153 66.598 33.5247 66.598 32.814C66.598 32.112 66.7063 31.488 66.923 30.942C67.1397 30.3873 67.4343 29.9193 67.807 29.538C68.1883 29.1567 68.6303 28.8663 69.133 28.667C69.6357 28.4677 70.1687 28.368 70.732 28.368C71.3473 28.368 71.876 28.4807 72.318 28.706C72.76 28.9313 73.1197 29.187 73.397 29.473L72.396 30.695C72.1793 30.5043 71.9497 30.344 71.707 30.214C71.4643 30.084 71.161 30.019 70.797 30.019C70.4677 30.019 70.1643 30.084 69.887 30.214C69.6183 30.3353 69.3843 30.513 69.185 30.747C68.9857 30.981 68.8297 31.267 68.717 31.605C68.613 31.943 68.561 32.3243 68.561 32.749C68.561 33.6243 68.756 34.3047 69.146 34.79C69.5447 35.2667 70.1427 35.505 70.94 35.505C71.1133 35.505 71.2823 35.4833 71.447 35.44C71.6117 35.3967 71.746 35.3317 71.85 35.245V33.789H70.446V32.229H73.54V36.129C73.2453 36.415 72.8553 36.6577 72.37 36.857C71.8847 37.0563 71.343 37.156 70.745 37.156ZM77.904 37.156C77.4967 37.156 77.1024 37.0823 76.721 36.935C76.3397 36.779 76.0017 36.558 75.707 36.272C75.421 35.986 75.1914 35.635 75.018 35.219C74.8447 34.7943 74.758 34.3133 74.758 33.776C74.758 33.2387 74.8447 32.762 75.018 32.346C75.1914 31.9213 75.421 31.566 75.707 31.28C76.0017 30.994 76.3397 30.7773 76.721 30.63C77.1024 30.474 77.4967 30.396 77.904 30.396C78.3114 30.396 78.7014 30.474 79.074 30.63C79.4554 30.7773 79.789 30.994 80.075 31.28C80.3697 31.566 80.6037 31.9213 80.777 32.346C80.9504 32.762 81.037 33.2387 81.037 33.776C81.037 34.3133 80.9504 34.7943 80.777 35.219C80.6037 35.635 80.3697 35.986 80.075 36.272C79.789 36.558 79.4554 36.779 79.074 36.935C78.7014 37.0823 78.3114 37.156 77.904 37.156ZM77.904 35.609C78.294 35.609 78.5887 35.4443 78.788 35.115C78.9874 34.7857 79.087 34.3393 79.087 33.776C79.087 33.2127 78.9874 32.7663 78.788 32.437C78.5887 32.1077 78.294 31.943 77.904 31.943C77.5054 31.943 77.2064 32.1077 77.007 32.437C76.8164 32.7663 76.721 33.2127 76.721 33.776C76.721 34.3393 76.8164 34.7857 77.007 35.115C77.2064 35.4443 77.5054 35.609 77.904 35.609ZM85.115 37.156C84.7076 37.156 84.3133 37.0823 83.932 36.935C83.5506 36.779 83.2126 36.558 82.918 36.272C82.632 35.986 82.4023 35.635 82.229 35.219C82.0556 34.7943 81.969 34.3133 81.969 33.776C81.969 33.2387 82.0556 32.762 82.229 32.346C82.4023 31.9213 82.632 31.566 82.918 31.28C83.2126 30.994 83.5506 30.7773 83.932 30.63C84.3133 30.474 84.7076 30.396 85.115 30.396C85.5223 30.396 85.9123 30.474 86.285 30.63C86.6663 30.7773 87 30.994 87.286 31.28C87.5806 31.566 87.8146 31.9213 87.988 32.346C88.1613 32.762 88.248 33.2387 88.248 33.776C88.248 34.3133 88.1613 34.7943 87.988 35.219C87.8146 35.635 87.5806 35.986 87.286 36.272C87 36.558 86.6663 36.779 86.285 36.935C85.9123 37.0823 85.5223 37.156 85.115 37.156ZM85.115 35.609C85.505 35.609 85.7996 35.4443 85.999 35.115C86.1983 34.7857 86.298 34.3393 86.298 33.776C86.298 33.2127 86.1983 32.7663 85.999 32.437C85.7996 32.1077 85.505 31.943 85.115 31.943C84.7163 31.943 84.4173 32.1077 84.218 32.437C84.0273 32.7663 83.932 33.2127 83.932 33.776C83.932 34.3393 84.0273 34.7857 84.218 35.115C84.4173 35.4443 84.7163 35.609 85.115 35.609ZM91.8579 39.743C91.4766 39.743 91.1212 39.7083 90.7919 39.639C90.4712 39.5783 90.1852 39.483 89.9339 39.353C89.6912 39.223 89.5006 39.054 89.3619 38.846C89.2232 38.638 89.1539 38.391 89.1539 38.105C89.1539 37.585 89.4616 37.1517 90.0769 36.805V36.753C89.9036 36.6403 89.7606 36.4973 89.6479 36.324C89.5352 36.1507 89.4789 35.9297 89.4789 35.661C89.4789 35.427 89.5482 35.206 89.6869 34.998C89.8256 34.7813 89.9989 34.5993 90.2069 34.452V34.4C89.9816 34.244 89.7779 34.023 89.5959 33.737C89.4226 33.4423 89.3359 33.1043 89.3359 32.723C89.3359 32.333 89.4096 31.995 89.5569 31.709C89.7042 31.4143 89.8992 31.1717 90.1419 30.981C90.3932 30.7817 90.6792 30.6343 90.9999 30.539C91.3206 30.4437 91.6542 30.396 92.0009 30.396C92.3822 30.396 92.7159 30.448 93.0019 30.552H95.3549V31.943H94.3279C94.3886 32.0383 94.4362 32.1597 94.4709 32.307C94.5142 32.4543 94.5359 32.6147 94.5359 32.788C94.5359 33.1607 94.4709 33.4857 94.3409 33.763C94.2109 34.0317 94.0289 34.257 93.7949 34.439C93.5696 34.6123 93.3009 34.7423 92.9889 34.829C92.6856 34.9157 92.3562 34.959 92.0009 34.959C91.7496 34.959 91.4896 34.9157 91.2209 34.829C91.1342 34.8983 91.0736 34.9677 91.0389 35.037C91.0042 35.1063 90.9869 35.1973 90.9869 35.31C90.9869 35.4747 91.0562 35.596 91.1949 35.674C91.3422 35.752 91.5979 35.791 91.9619 35.791H93.0019C93.7992 35.791 94.4059 35.921 94.8219 36.181C95.2466 36.4323 95.4589 36.8483 95.4589 37.429C95.4589 37.767 95.3722 38.0747 95.1989 38.352C95.0342 38.638 94.7959 38.8807 94.4839 39.08C94.1719 39.288 93.7949 39.4483 93.3529 39.561C92.9109 39.6823 92.4126 39.743 91.8579 39.743ZM92.0009 33.802C92.2522 33.802 92.4602 33.7153 92.6249 33.542C92.7982 33.36 92.8849 33.087 92.8849 32.723C92.8849 32.385 92.7982 32.1293 92.6249 31.956C92.4602 31.774 92.2522 31.683 92.0009 31.683C91.7496 31.683 91.5372 31.7697 91.3639 31.943C91.1992 32.1163 91.1169 32.3763 91.1169 32.723C91.1169 33.087 91.1992 33.36 91.3639 33.542C91.5372 33.7153 91.7496 33.802 92.0009 33.802ZM92.1569 38.547C92.5902 38.547 92.9456 38.469 93.2229 38.313C93.5002 38.1657 93.6389 37.9793 93.6389 37.754C93.6389 37.5547 93.5522 37.4203 93.3789 37.351C93.2142 37.2817 92.9716 37.247 92.6509 37.247H91.9879C91.7626 37.247 91.5806 37.2383 91.4419 37.221C91.3032 37.2123 91.1819 37.195 91.0779 37.169C90.8439 37.377 90.7269 37.5893 90.7269 37.806C90.7269 38.0487 90.8569 38.2307 91.1169 38.352C91.3769 38.482 91.7236 38.547 92.1569 38.547ZM98.2563 37.156C97.9269 37.156 97.6496 37.104 97.4243 37C97.1989 36.896 97.0169 36.753 96.8783 36.571C96.7483 36.3803 96.6529 36.155 96.5923 35.895C96.5316 35.6263 96.5013 35.3273 96.5013 34.998V27.887H98.4123V35.076C98.4123 35.2753 98.4469 35.414 98.5163 35.492C98.5943 35.57 98.6723 35.609 98.7503 35.609C98.7936 35.609 98.8283 35.609 98.8543 35.609C98.8889 35.609 98.9323 35.6003 98.9843 35.583L99.2183 37C99.1143 37.0433 98.9799 37.078 98.8153 37.104C98.6593 37.1387 98.4729 37.156 98.2563 37.156ZM103.107 37.156C102.648 37.156 102.219 37.0823 101.82 36.935C101.421 36.779 101.075 36.558 100.78 36.272C100.485 35.9773 100.256 35.622 100.091 35.206C99.9263 34.79 99.844 34.3133 99.844 33.776C99.844 33.256 99.9306 32.788 100.104 32.372C100.277 31.9473 100.503 31.592 100.78 31.306C101.066 31.0113 101.391 30.786 101.755 30.63C102.119 30.474 102.496 30.396 102.886 30.396C103.345 30.396 103.744 30.474 104.082 30.63C104.429 30.786 104.715 31.0027 104.94 31.28C105.174 31.5573 105.347 31.8867 105.46 32.268C105.573 32.6407 105.629 33.048 105.629 33.49C105.629 33.6633 105.62 33.828 105.603 33.984C105.586 34.14 105.568 34.257 105.551 34.335H101.69C101.777 34.803 101.967 35.1497 102.262 35.375C102.565 35.5917 102.934 35.7 103.367 35.7C103.826 35.7 104.29 35.557 104.758 35.271L105.395 36.428C105.066 36.6533 104.697 36.831 104.29 36.961C103.891 37.091 103.497 37.156 103.107 37.156ZM101.677 33.074H104.004C104.004 32.71 103.922 32.4153 103.757 32.19C103.592 31.9647 103.315 31.852 102.925 31.852C102.622 31.852 102.353 31.9517 102.119 32.151C101.894 32.3503 101.746 32.658 101.677 33.074ZM109.708 37V28.524H112.62C113.088 28.524 113.526 28.5717 113.933 28.667C114.34 28.7537 114.696 28.9053 114.999 29.122C115.302 29.33 115.541 29.6117 115.714 29.967C115.896 30.3137 115.987 30.7427 115.987 31.254C115.987 31.748 115.896 32.177 115.714 32.541C115.541 32.905 115.302 33.204 114.999 33.438C114.696 33.672 114.345 33.8453 113.946 33.958C113.547 34.0707 113.123 34.127 112.672 34.127H111.619V37H109.708ZM111.619 32.606H112.555C113.595 32.606 114.115 32.1553 114.115 31.254C114.115 30.812 113.976 30.5 113.699 30.318C113.422 30.136 113.023 30.045 112.503 30.045H111.619V32.606ZM119.051 37.156C118.722 37.156 118.445 37.104 118.219 37C117.994 36.896 117.812 36.753 117.673 36.571C117.543 36.3803 117.448 36.155 117.387 35.895C117.327 35.6263 117.296 35.3273 117.296 34.998V27.887H119.207V35.076C119.207 35.2753 119.242 35.414 119.311 35.492C119.389 35.57 119.467 35.609 119.545 35.609C119.589 35.609 119.623 35.609 119.649 35.609C119.684 35.609 119.727 35.6003 119.779 35.583L120.013 37C119.909 37.0433 119.775 37.078 119.61 37.104C119.454 37.1387 119.268 37.156 119.051 37.156ZM122.641 37.156C122.346 37.156 122.078 37.104 121.835 37C121.601 36.9047 121.402 36.7703 121.237 36.597C121.072 36.415 120.942 36.207 120.847 35.973C120.76 35.739 120.717 35.4833 120.717 35.206C120.717 34.53 121.003 34.0013 121.575 33.62C122.147 33.2387 123.07 32.983 124.344 32.853C124.327 32.567 124.24 32.3417 124.084 32.177C123.937 32.0037 123.685 31.917 123.33 31.917C123.053 31.917 122.775 31.969 122.498 32.073C122.229 32.177 121.939 32.32 121.627 32.502L120.938 31.241C121.354 30.9897 121.787 30.786 122.238 30.63C122.697 30.474 123.183 30.396 123.694 30.396C124.526 30.396 125.159 30.6343 125.592 31.111C126.034 31.579 126.255 32.3113 126.255 33.308V37H124.695L124.565 36.337H124.513C124.236 36.5797 123.945 36.779 123.642 36.935C123.339 37.0823 123.005 37.156 122.641 37.156ZM123.291 35.674C123.508 35.674 123.694 35.6263 123.85 35.531C124.006 35.4357 124.171 35.3013 124.344 35.128V33.997C123.668 34.0923 123.2 34.231 122.94 34.413C122.68 34.595 122.55 34.8117 122.55 35.063C122.55 35.271 122.615 35.427 122.745 35.531C122.884 35.6263 123.066 35.674 123.291 35.674ZM128.586 39.522C128.387 39.522 128.218 39.509 128.079 39.483C127.941 39.4657 127.806 39.4353 127.676 39.392L128.014 37.936C128.075 37.9533 128.144 37.9707 128.222 37.988C128.3 38.0053 128.374 38.014 128.443 38.014C128.764 38.014 129.011 37.936 129.184 37.78C129.358 37.624 129.488 37.4203 129.574 37.169L129.665 36.831L127.182 30.552H129.106L130.029 33.321C130.125 33.6157 130.211 33.9147 130.289 34.218C130.367 34.5213 130.45 34.8333 130.536 35.154H130.588C130.658 34.8507 130.727 34.5473 130.796 34.244C130.874 33.932 130.952 33.6243 131.03 33.321L131.81 30.552H133.643L131.407 37.065C131.251 37.4723 131.087 37.8277 130.913 38.131C130.749 38.443 130.554 38.6987 130.328 38.898C130.112 39.106 129.86 39.262 129.574 39.366C129.297 39.47 128.968 39.522 128.586 39.522Z" fill="#232224"/>
<defs>
<linearGradient id="paint0_linear" x1="49.6631" y1="19.6311" x2="36.7729" y2="32.8604" gradientUnits="userSpaceOnUse">
<stop stop-color="#A950C4"/>
<stop offset="1" stop-color="#82269E"/>
</linearGradient>
</defs>
</svg>
