<svg width="48" height="48" viewBox="0 0 48 48" fill="none" xmlns="http://www.w3.org/2000/svg">
<path d="M32 8H16C11.5817 8 8 11.5817 8 16V32C8 36.4183 11.5817 40 16 40H32C36.4183 40 40 36.4183 40 32V16C40 11.5817 36.4183 8 32 8Z" stroke="#868587" stroke-width="2" stroke-linecap="round" stroke-linejoin="round"/>
<path d="M30.4 22.992C30.5974 24.3236 30.37 25.6835 29.75 26.8784C29.13 28.0733 28.149 29.0423 26.9466 29.6475C25.7441 30.2527 24.3815 30.4633 23.0524 30.2495C21.7234 30.0356 20.4956 29.4081 19.5437 28.4563C18.5918 27.5044 17.9643 26.2766 17.7505 24.9475C17.5366 23.6185 17.7473 22.2558 18.3525 21.0534C18.9577 19.851 19.9267 18.87 21.1215 18.25C22.3164 17.63 23.6764 17.4025 25.008 17.6C26.3662 17.8014 27.6237 18.4343 28.5947 19.4053C29.5656 20.3762 30.1986 21.6337 30.4 22.992Z" stroke="#868587" stroke-width="2" stroke-linecap="round" stroke-linejoin="round"/>
<path d="M32.8 15.1987H32.8169" stroke="#868587" stroke-width="2" stroke-linecap="round" stroke-linejoin="round"/>
</svg>
