<svg width="48" height="48" viewBox="0 0 48 48" fill="none" xmlns="http://www.w3.org/2000/svg">
<path d="M39.3301 16.5481C39.1573 15.8523 38.8055 15.2148 38.31 14.6999C37.8146 14.185 37.1931 13.8111 36.5084 13.6158C34.0068 13 24 13 24 13C24 13 13.9932 13 11.4916 13.6744C10.8069 13.8697 10.1854 14.2437 9.68998 14.7585C9.19454 15.2734 8.84266 15.9109 8.66989 16.6068C8.21204 19.166 7.98808 21.7623 8.00083 24.3628C7.98451 26.9829 8.20848 29.5989 8.66989 32.1775C8.86036 32.8517 9.22012 33.465 9.71441 33.9581C10.2087 34.4512 10.8208 34.8075 11.4916 34.9925C13.9932 35.6669 24 35.6669 24 35.6669C24 35.6669 34.0068 35.6669 36.5084 34.9925C37.1931 34.7972 37.8146 34.4233 38.31 33.9084C38.8055 33.3935 39.1573 32.756 39.3301 32.0602C39.7844 29.5202 40.0084 26.9437 39.9992 24.3628C40.0155 21.7427 39.7915 19.1267 39.3301 16.5481V16.5481Z" stroke="#868587" stroke-width="2" stroke-linecap="round" stroke-linejoin="round"/>
<path d="M20.7273 29.1576L29.0905 24.3632L20.7273 19.5688V29.1576Z" stroke="#868587" stroke-width="2" stroke-linecap="round" stroke-linejoin="round"/>
</svg>
