<svg width="48" height="48" viewBox="0 0 48 48" fill="none" xmlns="http://www.w3.org/2000/svg">
<path d="M40 11.0146C38.6071 11.9971 37.0649 12.7486 35.4327 13.2401C34.5567 12.2328 33.3925 11.5189 32.0975 11.1949C30.8025 10.8709 29.4393 10.9524 28.1921 11.4284C26.945 11.9044 25.8741 12.7519 25.1243 13.8564C24.3746 14.9609 23.9821 16.2689 24 17.6037V19.0583C21.4438 19.1245 18.9109 18.5576 16.6269 17.408C14.3429 16.2584 12.3786 14.5617 10.9091 12.4692C10.9091 12.4692 5.09091 25.5601 18.1818 31.3783C15.1862 33.4117 11.6177 34.4312 8 34.2874C21.0909 41.5601 37.0909 34.2874 37.0909 17.5601C37.0896 17.1549 37.0506 16.7508 36.9745 16.3528C38.4591 14.8888 39.5067 13.0404 40 11.0146V11.0146Z" stroke="#868587" stroke-width="2" stroke-linecap="round" stroke-linejoin="round"/>
</svg>
