<svg width="72" height="72" viewBox="0 0 72 72" fill="none" xmlns="http://www.w3.org/2000/svg">
<rect width="72" height="72" rx="17.0769" fill="#FEFBFF"/>
<path d="M35.9999 41.3637C38.4098 41.3637 40.3635 39.4101 40.3635 37.0001C40.3635 34.5901 38.4098 32.6365 35.9999 32.6365C33.5899 32.6365 31.6362 34.5901 31.6362 37.0001C31.6362 39.4101 33.5899 41.3637 35.9999 41.3637Z" stroke="url(#paint0_linear)" stroke-width="3" stroke-linecap="round" stroke-linejoin="round"/>
<path d="M46.7636 41.3636C46.57 41.8024 46.5123 42.289 46.5978 42.7609C46.6834 43.2327 46.9083 43.6681 47.2436 44.0109L47.3309 44.0982C47.6014 44.3684 47.816 44.6892 47.9624 45.0424C48.1088 45.3955 48.1841 45.7741 48.1841 46.1564C48.1841 46.5387 48.1088 46.9172 47.9624 47.2704C47.816 47.6235 47.6014 47.9444 47.3309 48.2145C47.0607 48.485 46.7399 48.6996 46.3867 48.846C46.0336 48.9924 45.655 49.0677 45.2727 49.0677C44.8904 49.0677 44.5119 48.9924 44.1587 48.846C43.8056 48.6996 43.4847 48.485 43.2145 48.2145L43.1273 48.1273C42.7845 47.7919 42.3491 47.567 41.8772 47.4814C41.4054 47.3959 40.9187 47.4537 40.48 47.6473C40.0498 47.8317 39.6829 48.1378 39.4244 48.5281C39.166 48.9183 39.0273 49.3756 39.0255 49.8436V50.0909C39.0255 50.8624 38.719 51.6024 38.1734 52.1479C37.6278 52.6935 36.8879 53 36.1164 53C35.3448 53 34.6049 52.6935 34.0593 52.1479C33.5138 51.6024 33.2073 50.8624 33.2073 50.0909V49.96C33.196 49.4786 33.0402 49.0116 32.76 48.6199C32.4799 48.2282 32.0883 47.9299 31.6364 47.7636C31.1976 47.57 30.711 47.5123 30.2391 47.5978C29.7673 47.6834 29.3319 47.9083 28.9891 48.2436L28.9018 48.3309C28.6316 48.6014 28.3108 48.816 27.9576 48.9624C27.6045 49.1088 27.2259 49.1841 26.8436 49.1841C26.4613 49.1841 26.0828 49.1088 25.7296 48.9624C25.3765 48.816 25.0556 48.6014 24.7855 48.3309C24.515 48.0607 24.3004 47.7399 24.154 47.3867C24.0076 47.0336 23.9323 46.655 23.9323 46.2727C23.9323 45.8904 24.0076 45.5119 24.154 45.1587C24.3004 44.8056 24.515 44.4847 24.7855 44.2145L24.8727 44.1273C25.2081 43.7845 25.433 43.3491 25.5186 42.8772C25.6041 42.4054 25.5463 41.9187 25.3527 41.48C25.1683 41.0498 24.8622 40.6829 24.4719 40.4244C24.0817 40.166 23.6244 40.0273 23.1564 40.0255H22.9091C22.1376 40.0255 21.3976 39.719 20.8521 39.1734C20.3065 38.6278 20 37.8879 20 37.1164C20 36.3448 20.3065 35.6049 20.8521 35.0593C21.3976 34.5138 22.1376 34.2073 22.9091 34.2073H23.04C23.5214 34.196 23.9884 34.0402 24.3801 33.76C24.7718 33.4799 25.0701 33.0883 25.2364 32.6364C25.43 32.1976 25.4877 31.711 25.4022 31.2391C25.3166 30.7673 25.0917 30.3319 24.7564 29.9891L24.6691 29.9018C24.3986 29.6316 24.184 29.3108 24.0376 28.9576C23.8912 28.6045 23.8159 28.2259 23.8159 27.8436C23.8159 27.4613 23.8912 27.0828 24.0376 26.7296C24.184 26.3765 24.3986 26.0556 24.6691 25.7855C24.9393 25.515 25.2601 25.3004 25.6133 25.154C25.9664 25.0076 26.345 24.9323 26.7273 24.9323C27.1096 24.9323 27.4881 25.0076 27.8413 25.154C28.1944 25.3004 28.5153 25.515 28.7855 25.7855L28.8727 25.8727C29.2155 26.2081 29.6509 26.433 30.1228 26.5186C30.5946 26.6041 31.0813 26.5463 31.52 26.3527H31.6364C32.0666 26.1683 32.4335 25.8622 32.6919 25.4719C32.9504 25.0817 33.089 24.6244 33.0909 24.1564V23.9091C33.0909 23.1376 33.3974 22.3976 33.943 21.8521C34.4885 21.3065 35.2285 21 36 21C36.7715 21 37.5115 21.3065 38.057 21.8521C38.6026 22.3976 38.9091 23.1376 38.9091 23.9091V24.04C38.911 24.5081 39.0496 24.9653 39.3081 25.3556C39.5665 25.7458 39.9334 26.052 40.3636 26.2364C40.8024 26.43 41.289 26.4877 41.7609 26.4022C42.2327 26.3166 42.6681 26.0917 43.0109 25.7564L43.0982 25.6691C43.3684 25.3986 43.6892 25.184 44.0424 25.0376C44.3955 24.8912 44.7741 24.8159 45.1564 24.8159C45.5387 24.8159 45.9172 24.8912 46.2704 25.0376C46.6235 25.184 46.9444 25.3986 47.2145 25.6691C47.485 25.9393 47.6996 26.2601 47.846 26.6133C47.9924 26.9664 48.0677 27.345 48.0677 27.7273C48.0677 28.1096 47.9924 28.4881 47.846 28.8413C47.6996 29.1944 47.485 29.5153 47.2145 29.7855L47.1273 29.8727C46.7919 30.2155 46.567 30.6509 46.4814 31.1228C46.3959 31.5946 46.4537 32.0813 46.6473 32.52V32.6364C46.8317 33.0666 47.1378 33.4335 47.5281 33.6919C47.9183 33.9504 48.3756 34.089 48.8436 34.0909H49.0909C49.8624 34.0909 50.6024 34.3974 51.1479 34.943C51.6935 35.4885 52 36.2285 52 37C52 37.7715 51.6935 38.5115 51.1479 39.057C50.6024 39.6026 49.8624 39.9091 49.0909 39.9091H48.96C48.4919 39.911 48.0347 40.0496 47.6444 40.3081C47.2542 40.5665 46.948 40.9334 46.7636 41.3636V41.3636Z" stroke="url(#paint1_linear)" stroke-width="3" stroke-linecap="round" stroke-linejoin="round"/>
<defs>
<linearGradient id="paint0_linear" x1="39.0108" y1="33.8147" x2="33.2944" y2="40.4037" gradientUnits="userSpaceOnUse">
<stop stop-color="#A950C4"/>
<stop offset="1" stop-color="#82269E"/>
</linearGradient>
<linearGradient id="paint1_linear" x1="47.04" y1="25.32" x2="26.08" y2="49.48" gradientUnits="userSpaceOnUse">
<stop stop-color="#A950C4"/>
<stop offset="1" stop-color="#82269E"/>
</linearGradient>
</defs>
</svg>
