<svg viewBox="0 0 88 70" fill="none" xmlns="http://www.w3.org/2000/svg">
<g id="logonu">
<path id="logonu-letter-u" class="logonu-letter-u" d="M78.6686 46.9969V19.7357C78.6686 18.4084 77.9513 18 76.9264 18H71.1871C69.9572 18 69.4448 18.4084 69.4448 19.7357V57.922C69.4448 58.8409 67.6128 62.1791 62.4756 61.802C52.7393 61.0873 47 54.3433 47 48.937V19.7357C47 18.6126 47.5125 18 48.7423 18H54.3791C55.609 18 56.1214 18.6126 56.1214 19.7357V46.6907C56.1214 49.7455 59.1535 53.0211 62.4756 53.0211H72.725C76.0046 53.0211 78.6686 49.2432 78.6686 46.9969Z" stroke="url(#logonu0_linear)" stroke-width="1.5"/>
<path id="logonu-letter-n" class="logonu-letter-n" d="M8 23.8346V51.0958C8 52.4232 8.71739 52.8316 9.74226 52.8316H15.4816C16.7114 52.8316 17.2238 52.4232 17.2239 51.0958V12.9095C17.2239 11.9906 19.0558 8.65246 24.193 9.02957C33.9293 9.74428 39.6686 16.4882 39.6686 21.8946V51.0958C39.6686 52.219 39.1562 52.8316 37.9263 52.8316H32.2895C31.0597 52.8316 30.5473 52.219 30.5473 51.0958V24.1408C30.5473 21.086 27.5151 17.8105 24.193 17.8105H13.9436C10.664 17.8105 7.99999 21.5884 8 23.8346Z" stroke="url(#logonu1_linear)" stroke-width="1.5"/>
</g>
<defs>
<linearGradient id="logonu0_linear" x1="51.9086" y1="55.9143" x2="80.43" y2="32.1613" gradientUnits="userSpaceOnUse">
<stop stop-color="#A950C4"/>
<stop offset="1" stop-color="#82269E"/>
</linearGradient>
<linearGradient id="logonu1_linear" x1="34.76" y1="14.9173" x2="6.23866" y2="38.6702" gradientUnits="userSpaceOnUse">
<stop stop-color="#A950C4"/>
<stop offset="1" stop-color="#82269E"/>
</linearGradient>
</defs>
</svg>
