<svg width="1080" height="856" viewBox="0 0 1080 856" fill="none" xmlns="http://www.w3.org/2000/svg">
<path d="M1145 614.703V173.116C1145 151.616 1133.36 145 1116.72 145H1023.57C1003.61 145 995.292 151.616 995.291 173.116V791.672C995.291 806.557 965.558 860.63 882.178 854.521C724.152 842.944 631 733.703 631 646.129V173.116C631 154.923 639.318 145 659.278 145H750.767C770.729 145 779.045 154.923 779.045 173.116V609.744C779.045 659.226 828.259 712.285 882.178 712.285H1048.53C1101.76 712.285 1145 651.089 1145 614.703Z" stroke="url(#paint0_linear)" stroke-width="2"/>
<path d="M1 241.297V682.884C1 704.384 12.5983 711 29.1679 711H121.958C141.841 711 150.126 704.384 150.126 682.884V64.3282C150.126 49.4429 179.744 -4.62965 262.799 1.47891C420.21 13.0561 513 122.297 513 209.871V682.884C513 701.077 504.715 711 484.832 711H393.699C373.815 711 365.531 701.077 365.531 682.884V246.256C365.531 196.774 316.509 143.715 262.799 143.715H97.0934C44.0705 143.715 0.999882 204.911 1 241.297Z" stroke="url(#paint1_linear)" stroke-width="2"/>
<defs>
<linearGradient id="paint0_linear" x1="888" y1="145" x2="888" y2="855" gradientUnits="userSpaceOnUse">
<stop stop-color="#82269E" stop-opacity="0.7"/>
<stop offset="1" stop-color="#82269E" stop-opacity="0"/>
</linearGradient>
<linearGradient id="paint1_linear" x1="257" y1="711" x2="257" y2="1.00001" gradientUnits="userSpaceOnUse">
<stop stop-color="#82269E" stop-opacity="0.7"/>
<stop offset="1" stop-color="#82269E" stop-opacity="0"/>
</linearGradient>
</defs>
</svg>
